<svg version="1.1" id="Layer_1" xmlns="http://www.w3.org/2000/svg" xmlns:xlink="http://www.w3.org/1999/xlink" x="0px" y="0px"
	 width="100%" viewBox="0 0 188 183" enable-background="new 0 0 188 183" xml:space="preserve">
<path fill="none" opacity="1.000000" stroke="#000000" stroke-linecap="round" stroke-linejoin="round" stroke-width="3.000000"
	d="
M78.500000,76.000000 
	C73.022026,75.303261 67.475639,75.381981 61.993366,75.180687 
	C49.346786,74.716324 36.630150,73.438957 24.009024,75.553856 
	C20.931522,76.069542 16.412004,76.420815 16.328651,80.007637 
	C16.254599,83.194221 20.621229,83.151848 23.445271,84.154198 
	C27.927851,85.745224 32.541798,84.420677 37.057442,85.813812 
	C40.604572,86.908157 44.666668,86.333336 48.500000,86.500000 
"/>
<path fill="none" opacity="1.000000" stroke="#000000" stroke-linecap="round" stroke-linejoin="round" stroke-width="3.000000"
	d="
M136.500000,121.500000 
	C133.166672,121.500000 129.833328,121.500000 126.000618,121.500000 
	C128.031799,127.594162 129.959778,133.566528 132.013718,139.495239 
	C134.791855,147.514374 137.752335,155.471130 140.462067,163.512787 
	C141.722382,167.252960 144.081970,170.169800 147.089539,172.378052 
	C148.454361,173.380157 150.082199,175.838959 152.487122,173.983307 
	C154.309570,172.577118 154.214569,170.430328 153.957687,168.505646 
	C152.923401,160.755966 150.616348,153.430283 145.975861,147.017471 
	C144.948441,145.597641 142.946686,144.770355 143.500000,142.500000 
"/>
<path fill="none" opacity="1.000000" stroke="#000000" stroke-linecap="round" stroke-linejoin="round" stroke-width="2.000000"
	d="
M110.000000,76.500000 
	C99.780853,77.767220 89.650589,76.323814 78.868385,75.810997 
	C78.325119,83.437965 76.287193,91.190338 74.542046,99.009384 
	C71.524567,112.529099 67.449631,125.744827 63.470097,138.991013 
	C63.199078,139.893143 62.536854,140.691574 61.993557,141.495651 
	C59.746490,144.821243 56.346638,146.086838 54.000004,144.500000 
	C50.626411,142.218719 50.076290,138.176300 52.454369,134.470718 
	C53.018677,133.591400 53.423077,132.756409 54.500000,132.500000 
"/>
<path fill="none" opacity="1.000000" stroke="#000000" stroke-linecap="round" stroke-linejoin="round" stroke-width="2.000000"
	d="
M135.500000,91.500000 
	C139.877090,92.996315 144.527847,92.379440 149.028473,93.370758 
	C155.622040,94.823067 160.353638,98.318176 164.615082,103.403557 
	C168.219635,107.705017 166.005341,111.853493 164.732727,115.404205 
	C163.302795,119.393822 158.662888,120.245987 154.499664,120.494263 
	C148.833344,120.832176 143.164612,121.129776 137.484161,121.445374 
	C135.034729,112.979019 130.548920,105.276779 127.541229,96.985046 
	C125.089142,90.224991 120.671532,84.264717 119.500000,77.000000 
"/>
<path fill="none" opacity="1.000000" stroke="#000000" stroke-linecap="round" stroke-linejoin="round" stroke-width="3.000000"
	d="
M89.500000,15.500000 
	C88.857162,24.478889 86.393066,33.149139 85.011658,42.001820 
	C83.296356,52.994228 81.666672,64.000000 80.000000,75.000000 
"/>
<path fill="none" opacity="1.000000" stroke="#000000" stroke-linecap="round" stroke-linejoin="round" stroke-width="3.000000"
	d="
M80.500000,33.500000 
	C76.233109,33.242130 72.128784,33.518379 68.237701,37.224430 
	C72.795296,42.011765 78.323013,42.692467 84.000000,43.000000 
"/>
<path fill="none" opacity="1.000000" stroke="#000000" stroke-linecap="round" stroke-linejoin="round" stroke-width="2.000000"
	d="
M100.000000,46.500000 
	C104.833336,60.166664 109.833923,73.777184 114.447227,87.517715 
	C118.156082,98.564423 121.544220,109.716911 126.000000,120.500000 
"/>
<path fill="none" opacity="1.000000" stroke="#000000" stroke-linecap="round" stroke-linejoin="round" stroke-width="2.000000"
	d="
M90.000000,21.500000 
	C93.757484,28.650877 95.865280,36.424774 98.514282,43.995003 
	C98.709335,44.552448 99.107933,45.038662 99.362358,45.473347 
	C106.778152,45.701000 114.046822,45.544575 121.035294,48.414036 
	C124.936050,50.015675 128.120590,52.116028 127.863083,56.491943 
	C127.632149,60.416325 125.148636,63.262104 119.495117,63.960499 
	C115.186356,64.492767 110.833336,64.666672 106.500000,65.000000 
"/>
<path fill="none" opacity="1.000000" stroke="#000000" stroke-linecap="round" stroke-linejoin="round" stroke-width="3.000000"
	d="
M111.000000,77.000000 
	C115.134331,76.024910 119.331200,76.602249 123.500145,76.506447 
	C128.842926,76.383675 132.685349,79.241905 135.986664,83.011681 
	C138.960144,86.407112 137.421783,90.930687 132.999130,91.996384 
	C130.837479,92.517258 128.666672,93.000008 126.500000,93.500008 
"/>
<path fill="none" opacity="1.000000" stroke="#000000" stroke-linecap="round" stroke-linejoin="round" stroke-width="2.000000"
	d="
M106.500000,47.000000 
	C108.166664,51.833332 109.833336,56.666668 111.500000,61.500000 
"/>
<path fill="none" opacity="1.000000" stroke="#000000" stroke-linecap="round" stroke-linejoin="round" stroke-width="3.000000"
	d="
M86.000000,44.000000 
	C90.000000,44.333336 94.000000,44.666668 98.000000,45.000000 
"/>
<path fill="none" opacity="1.000000" stroke="#000000" stroke-linecap="round" stroke-linejoin="round" stroke-width="2.000000"
	d="
M125.500000,93.500000 
	C122.731384,93.456253 120.096611,94.126366 117.500000,95.000000 
"/>
</svg>