<svg version="1.1" id="Layer_1" xmlns="http://www.w3.org/2000/svg" xmlns:xlink="http://www.w3.org/1999/xlink" x="0px" y="0px"
	 width="100%" viewBox="0 0 416 416" enable-background="new 0 0 416 416" xml:space="preserve">
<path fill="#000000" opacity="1.000000" stroke="none"
	d="
M353.242188,66.747375
	C383.134003,97.112572 402.015564,132.809082 408.328522,174.692627
	C414.277008,214.157867 408.895111,252.201416 390.775421,287.883728
	C360.191132,348.112091 310.993011,384.566956 244.532562,394.417480
	C176.184799,404.547699 117.524910,382.574890 70.582809,331.658569
	C41.894806,300.541779 25.833517,263.177399 22.036781,221.080032
	C14.255521,134.803070 64.163712,54.495861 144.821762,23.995449
	C213.501221,-1.975328 277.975922,8.185462 336.795380,52.394398
	C342.502014,56.683510 347.603333,61.778008 353.242188,66.747375
M103.215561,60.726288
	C87.453522,72.775352 74.121567,87.100479 63.129795,103.604866
	C39.197285,139.540054 30.013336,179.070175 33.917221,221.932922
	C37.295319,259.022705 51.296635,291.814850 75.501472,319.640259
	C118.426170,368.985596 173.258987,389.754852 238.107971,382.515228
	C278.851105,377.966736 314.069458,360.564301 343.012634,331.450653
	C388.159973,286.037354 404.860291,231.205948 393.195160,168.571808
	C383.301453,115.449120 353.227631,75.505684 307.173859,47.829750
	C283.461243,33.579708 257.552856,25.458492 229.707428,23.586203
	C197.486786,21.419729 166.594193,25.937874 137.342789,40.031864
	C135.904922,40.724663 134.141022,41.157539 133.505127,43.572571
	C138.238235,47.834988 136.905746,54.414513 138.849197,60.018703
	C150.413895,93.366669 161.705475,126.809967 172.956512,160.265717
	C176.351501,170.361008 179.288605,180.609619 182.517303,190.761978
	C183.334747,193.332352 183.213120,195.474808 180.455612,196.550781
	C177.513718,197.698700 176.178696,195.746719 175.254227,193.388290
	C174.707489,191.993515 174.215027,190.574524 173.763885,189.145660
	C163.940704,158.033127 154.099915,126.926102 144.331055,95.796494
	C142.057556,88.551712 140.034836,81.228241 137.896744,73.940971
	C136.215988,94.003914 135.407013,113.922333 134.197586,133.816391
	C132.864243,155.748535 131.102692,177.654282 129.638687,199.578934
	C128.019531,223.826813 126.170090,248.051865 123.176979,272.175781
	C122.031090,281.411469 121.457497,290.743591 118.949638,299.760498
	C118.151482,302.630188 117.307968,306.177155 113.969124,306.683594
	C110.550026,307.202240 107.665436,308.624298 104.654915,309.959534
	C100.275848,311.901733 96.262886,310.684235 93.062714,307.773682
	C83.621262,299.186737 77.474617,288.749664 76.922401,275.678680
	C76.816986,273.183472 75.397499,268.971710 79.619598,268.923370
	C83.431129,268.879730 82.159424,272.906311 82.293503,275.327423
	C82.853294,285.436005 87.347069,293.521149 94.968163,299.875916
	C99.389641,303.562744 104.406738,302.491669 107.161034,297.509399
	C110.573769,291.336029 112.867233,284.807129 112.806732,277.612244
	C112.784332,274.949341 112.820724,272.269806 113.084770,269.623260
	C114.902786,251.401016 116.417725,233.162552 116.888054,214.844315
	C117.157341,204.356583 117.477959,193.863388 118.113968,183.393204
	C119.577209,159.304657 122.129578,135.290634 123.022491,111.159348
	C123.330101,102.846024 124.015915,94.545952 124.572845,86.242775
	C125.470886,72.854225 126.728462,59.483383 126.815735,45.343525
	C118.307945,49.838238 111.007553,55.002438 103.215561,60.726288
z"/>
<path fill="#000000" opacity="1.000000" stroke="none"
	d="
M315.820099,201.079834
	C332.933502,202.322144 349.599152,201.662323 366.252380,201.835266
	C371.665131,201.891479 374.617279,204.328049 374.135742,208.508148
	C373.626099,212.932526 370.454620,213.955978 366.616058,214.163528
	C339.837341,215.611450 313.036499,216.075500 286.223785,216.054657
	C285.569366,216.054153 284.914948,216.054581 283.977692,216.402924
	C293.817657,221.052460 302.316559,226.426163 304.118805,238.568497
	C305.903168,250.590149 300.154724,258.558136 290.987976,265.766418
	C294.623016,267.224854 297.542236,268.284180 300.369019,269.549957
	C311.710327,274.628418 317.372223,283.851593 318.132538,295.837372
	C318.829712,306.828674 312.366821,314.308807 303.762238,319.927948
	C295.235535,325.496307 285.527283,328.703552 276.209625,332.667694
	C275.759583,332.859131 275.188141,333.096466 274.767883,332.977661
	C266.522736,330.646759 257.616180,330.233551 250.312943,325.164398
	C247.046753,322.897369 247.556091,320.777924 251.515900,319.626190
	C253.186493,319.140320 253.630814,318.343323 253.726334,316.886932
	C255.053925,296.642853 257.493469,276.476471 258.001251,256.175659
	C258.246857,246.356689 258.482147,236.536407 258.581757,226.715286
	C258.633636,221.603165 262.326202,219.057648 265.201904,216.311646
	C257.308075,216.311646 249.095367,216.290939 240.882797,216.315475
	C214.408524,216.394547 187.938690,217.150986 161.457031,216.417023
	C154.601196,216.227020 147.531677,215.213287 140.874924,218.650864
	C138.517532,219.868225 135.990891,218.460846 134.371063,216.203018
	C132.882263,214.127823 132.570038,211.868927 133.898056,209.635483
	C135.248444,207.364471 137.539902,205.123230 139.952576,206.188873
	C146.196320,208.946594 152.102234,206.476532 158.090958,205.879013
	C174.687378,204.223099 191.350998,204.534088 207.979080,203.975128
	C243.759430,202.772385 279.554749,202.014709 315.820099,201.079834
M297.895691,277.503174
	C287.317688,270.498199 277.076324,275.682312 266.779510,278.395477
	C265.418182,278.754181 265.288910,280.042480 265.207947,281.235291
	C264.476288,292.015961 263.748779,302.796906 263.013947,313.577362
	C262.849335,315.992188 263.512604,318.144958 266.124298,318.496857
	C271.695801,319.247589 277.361664,320.311615 282.824097,317.953308
	C287.555084,315.910736 292.329712,313.919128 296.879456,311.515839
	C312.365845,303.335510 313.089752,287.609131 297.895691,277.503174
M286.763916,230.637558
	C283.037720,228.712570 279.062531,227.456940 274.974854,226.678726
	C271.588654,226.034088 269.237793,226.853409 268.959229,231.107254
	C268.232056,242.211578 267.162567,253.293121 266.320740,264.390686
	C266.201294,265.965912 265.764709,267.724762 267.090179,269.140472
	C268.735291,269.816589 269.959778,268.698883 271.309021,268.184692
	C278.487305,265.449249 284.097473,260.525391 289.407654,255.186188
	C297.378693,247.171509 296.573761,237.597366 286.763916,230.637558
z"/>
<path fill="#000000" opacity="1.000000" stroke="none"
	d="
M221.802643,197.983246
	C215.422974,201.238541 208.889160,202.436920 202.230164,203.054138
	C195.654694,203.663605 193.768753,200.448807 194.390152,193.940674
	C195.192825,185.533768 194.896042,176.961380 194.376938,168.502945
	C193.600189,155.846008 194.026627,143.193802 193.782135,130.542450
	C193.741409,128.434860 194.132584,125.945480 195.921738,125.220627
	C204.867630,121.596237 213.054108,114.173363 223.856979,118.716614
	C231.155594,121.786110 236.596405,127.212326 240.989578,133.583176
	C248.356232,144.266052 251.676041,155.967911 249.229172,169.046555
	C247.515350,178.206940 241.977798,184.624557 234.808319,189.841873
	C230.782959,192.771179 226.378616,195.179688 221.802643,197.983246
M228.190857,184.700790
	C238.544678,178.002289 243.037125,168.951401 239.751419,156.585480
	C236.797058,145.466629 231.403030,136.211441 220.333405,131.582672
	C213.187164,128.594467 208.290421,132.162643 208.026093,139.923386
	C207.499649,155.380692 206.867691,170.834656 206.418396,186.294037
	C206.340424,188.977158 205.502823,191.874146 207.386093,194.710663
	C215.022171,193.132355 221.279892,189.050446 228.190857,184.700790
z"/>
</svg>
